<svg width="25" height="25" viewBox="0 0 25 25" fill="none" xmlns="http://www.w3.org/2000/svg">
<path d="M9.47931 12.7477C9.60226 12.6953 9.73447 12.668 9.86814 12.6675C10.0018 12.667 10.1342 12.6934 10.2575 12.7449C10.3809 12.7965 10.4926 12.8723 10.5861 12.9677C10.6797 13.0632 10.7531 13.1765 10.8021 13.3009C10.8511 13.4252 10.8747 13.5582 10.8715 13.6918C10.8682 13.8254 10.8382 13.957 10.7832 14.0789C10.7282 14.2007 10.6494 14.3103 10.5513 14.4011C10.4533 14.492 10.338 14.5622 10.2123 14.6077C9.54385 14.8711 8.97014 15.3296 8.56582 15.9235C8.16149 16.5174 7.94528 17.2193 7.94531 17.9377V19.6777C7.94531 19.943 8.05067 20.1973 8.23821 20.3848C8.42574 20.5724 8.6801 20.6777 8.94531 20.6777H16.9453C17.2105 20.6777 17.4649 20.5724 17.6524 20.3848C17.84 20.1973 17.9453 19.943 17.9453 19.6777V18.0307C17.9454 17.2892 17.7202 16.5652 17.2994 15.9546C16.8787 15.344 16.2823 14.8757 15.5893 14.6117C15.4629 14.5679 15.3465 14.499 15.2471 14.4093C15.1478 14.3196 15.0674 14.2109 15.0108 14.0896C14.9543 13.9683 14.9226 13.8368 14.9178 13.7031C14.913 13.5693 14.9351 13.4359 14.9827 13.3108C15.0304 13.1858 15.1027 13.0715 15.1954 12.9749C15.288 12.8783 15.3991 12.8012 15.5221 12.7484C15.645 12.6955 15.7774 12.6678 15.9112 12.667C16.0451 12.6662 16.1777 12.6923 16.3013 12.7437C17.3729 13.1519 18.2952 13.8761 18.946 14.8202C19.5967 15.7644 19.9452 16.884 19.9453 18.0307V19.6777C19.9453 20.4734 19.6292 21.2364 19.0666 21.7991C18.504 22.3617 17.741 22.6777 16.9453 22.6777H8.94531C8.14966 22.6777 7.3866 22.3617 6.82399 21.7991C6.26138 21.2364 5.94531 20.4734 5.94531 19.6777V17.9377C5.94545 16.8179 6.28259 15.724 6.91287 14.7984C7.54316 13.8727 8.43741 13.1582 9.47931 12.7477ZM12.9453 2.67773C14.0062 2.67773 15.0236 3.09916 15.7737 3.84931C16.5239 4.59945 16.9453 5.61687 16.9453 6.67773V8.67773C16.9453 9.7386 16.5239 10.756 15.7737 11.5062C15.0236 12.2563 14.0062 12.6777 12.9453 12.6777C11.8844 12.6777 10.867 12.2563 10.1169 11.5062C9.36674 10.756 8.94531 9.7386 8.94531 8.67773V6.67773C8.94531 5.61687 9.36674 4.59945 10.1169 3.84931C10.867 3.09916 11.8844 2.67773 12.9453 2.67773ZM12.9453 4.67773C12.4149 4.67773 11.9062 4.88845 11.5311 5.26352C11.156 5.63859 10.9453 6.1473 10.9453 6.67773V8.67773C10.9453 9.20817 11.156 9.71688 11.5311 10.0919C11.9062 10.467 12.4149 10.6777 12.9453 10.6777C13.4757 10.6777 13.9845 10.467 14.3595 10.0919C14.7346 9.71688 14.9453 9.20817 14.9453 8.67773V6.67773C14.9453 6.1473 14.7346 5.63859 14.3595 5.26352C13.9845 4.88845 13.4757 4.67773 12.9453 4.67773Z" fill="white"/>
</svg>
