<svg width="25" height="25" viewBox="0 0 25 25" fill="none" xmlns="http://www.w3.org/2000/svg">
<path d="M8.5962 11.3524H14.2382C14.3695 11.3524 14.4996 11.3783 14.6209 11.4285C14.7422 11.4788 14.8525 11.5524 14.9453 11.6453C15.0382 11.7382 15.1118 11.8484 15.1621 11.9697C15.2123 12.0911 15.2382 12.2211 15.2382 12.3524C15.2382 12.4837 15.2123 12.6138 15.1621 12.7351C15.1118 12.8564 15.0382 12.9667 14.9453 13.0595C14.8525 13.1524 14.7422 13.226 14.6209 13.2763C14.4996 13.3265 14.3695 13.3524 14.2382 13.3524H8.5962L9.7182 14.4744C9.90571 14.6621 10.011 14.9165 10.0109 15.1818C10.0108 15.447 9.90534 15.7014 9.7177 15.8889C9.53006 16.0764 9.27562 16.1817 9.01035 16.1816C8.74508 16.1815 8.49071 16.0761 8.3032 15.8884L5.4752 13.0604C5.38187 12.9677 5.30779 12.8575 5.25724 12.7361C5.20669 12.6147 5.18066 12.4844 5.18066 12.3529C5.18066 12.2214 5.20669 12.0912 5.25724 11.9697C5.30779 11.8483 5.38187 11.7381 5.4752 11.6454L8.3022 8.81741C8.48971 8.62977 8.74408 8.52431 9.00935 8.52421C9.27462 8.52412 9.52906 8.62941 9.7167 8.81691C9.90434 9.00442 10.0098 9.25879 10.0099 9.52406C10.01 9.78933 9.90471 10.0438 9.7172 10.2314L8.5962 11.3524ZM18.1822 3.52441C18.4474 3.52441 18.7018 3.62977 18.8893 3.81731C19.0768 4.00484 19.1822 4.2592 19.1822 4.52441V20.5244C19.1822 20.7896 19.0768 21.044 18.8893 21.2315C18.7018 21.4191 18.4474 21.5244 18.1822 21.5244C17.917 21.5244 17.6626 21.4191 17.4751 21.2315C17.2876 21.044 17.1822 20.7896 17.1822 20.5244V4.52441C17.1822 4.2592 17.2876 4.00484 17.4751 3.81731C17.6626 3.62977 17.917 3.52441 18.1822 3.52441Z" fill="#444444"/>
</svg>
