<svg width="22" height="22" viewBox="0 0 22 22" fill="none" xmlns="http://www.w3.org/2000/svg">
<path d="M2.98127 2.5135V6.63816H7.10593V2.5135H2.98127ZM2.98127 0.451172H7.10593C7.6529 0.451172 8.17746 0.668452 8.56422 1.05521C8.95098 1.44198 9.16826 1.96654 9.16826 2.5135V6.63816C9.16826 7.18512 8.95098 7.70968 8.56422 8.09645C8.17746 8.48321 7.6529 8.70049 7.10593 8.70049H2.98127C2.43431 8.70049 1.90975 8.48321 1.52299 8.09645C1.13623 7.70968 0.918945 7.18512 0.918945 6.63816V2.5135C0.918945 1.96654 1.13623 1.44198 1.52299 1.05521C1.90975 0.668452 2.43431 0.451172 2.98127 0.451172V0.451172ZM15.3552 0.451172H19.4799C20.0269 0.451172 20.5514 0.668452 20.9382 1.05521C21.325 1.44198 21.5422 1.96654 21.5422 2.5135V6.63816C21.5422 7.18512 21.325 7.70968 20.9382 8.09645C20.5514 8.48321 20.0269 8.70049 19.4799 8.70049H15.3552C14.8083 8.70049 14.2837 8.48321 13.897 8.09645C13.5102 7.70968 13.2929 7.18512 13.2929 6.63816V2.5135C13.2929 1.96654 13.5102 1.44198 13.897 1.05521C14.2837 0.668452 14.8083 0.451172 15.3552 0.451172V0.451172ZM15.3552 2.5135V6.63816H19.4799V2.5135H15.3552ZM15.3552 12.8251H19.4799C20.0269 12.8251 20.5514 13.0424 20.9382 13.4292C21.325 13.816 21.5422 14.3405 21.5422 14.8875V19.0121C21.5422 19.5591 21.325 20.0837 20.9382 20.4704C20.5514 20.8572 20.0269 21.0745 19.4799 21.0745H15.3552C14.8083 21.0745 14.2837 20.8572 13.897 20.4704C13.5102 20.0837 13.2929 19.5591 13.2929 19.0121V14.8875C13.2929 14.3405 13.5102 13.816 13.897 13.4292C14.2837 13.0424 14.8083 12.8251 15.3552 12.8251ZM15.3552 14.8875V19.0121H19.4799V14.8875H15.3552ZM2.98127 12.8251H7.10593C7.6529 12.8251 8.17746 13.0424 8.56422 13.4292C8.95098 13.816 9.16826 14.3405 9.16826 14.8875V19.0121C9.16826 19.5591 8.95098 20.0837 8.56422 20.4704C8.17746 20.8572 7.6529 21.0745 7.10593 21.0745H2.98127C2.43431 21.0745 1.90975 20.8572 1.52299 20.4704C1.13623 20.0837 0.918945 19.5591 0.918945 19.0121V14.8875C0.918945 14.3405 1.13623 13.816 1.52299 13.4292C1.90975 13.0424 2.43431 12.8251 2.98127 12.8251ZM2.98127 14.8875V19.0121H7.10593V14.8875H2.98127Z" fill="white"/>
</svg>
