<svg width="21" height="21" viewBox="0 0 21 21" fill="none" xmlns="http://www.w3.org/2000/svg">
<path d="M7.29461 10.2691C7.39706 10.2254 7.50724 10.2027 7.61863 10.2023C7.73002 10.2019 7.84036 10.2238 7.94313 10.2668C8.0459 10.3097 8.13901 10.3729 8.21696 10.4524C8.29491 10.532 8.35611 10.6264 8.39695 10.7301C8.43779 10.8337 8.45744 10.9445 8.45474 11.0558C8.45203 11.1672 8.42703 11.2769 8.38121 11.3784C8.33539 11.4799 8.26967 11.5712 8.18796 11.6469C8.10624 11.7226 8.01018 11.7812 7.90544 11.8191C7.34839 12.0386 6.8703 12.4207 6.53336 12.9156C6.19643 13.4105 6.01625 13.9954 6.01628 14.5941V16.0441C6.01628 16.2651 6.10407 16.4771 6.26035 16.6334C6.41663 16.7896 6.6286 16.8774 6.84961 16.8774H13.5163C13.7373 16.8774 13.9493 16.7896 14.1055 16.6334C14.2618 16.4771 14.3496 16.2651 14.3496 16.0441V14.6716C14.3497 14.0537 14.162 13.4503 13.8114 12.9415C13.4607 12.4326 12.9637 12.0424 12.3863 11.8224C12.2809 11.7859 12.1839 11.7285 12.1011 11.6538C12.0183 11.579 11.9514 11.4884 11.9042 11.3873C11.8571 11.2862 11.8307 11.1767 11.8267 11.0652C11.8227 10.9537 11.8411 10.8426 11.8808 10.7384C11.9205 10.6341 11.9808 10.5389 12.058 10.4584C12.1352 10.3779 12.2278 10.3137 12.3302 10.2696C12.4327 10.2256 12.543 10.2025 12.6545 10.2018C12.7661 10.2012 12.8766 10.2229 12.9796 10.2658C13.8726 10.6059 14.6412 11.2094 15.1835 11.9962C15.7258 12.783 16.0162 13.716 16.0163 14.6716V16.0441C16.0163 16.7071 15.7529 17.343 15.284 17.8119C14.8152 18.2807 14.1793 18.5441 13.5163 18.5441H6.84961C6.18657 18.5441 5.55068 18.2807 5.08184 17.8119C4.613 17.343 4.34961 16.7071 4.34961 16.0441V14.5941C4.34972 13.6609 4.63067 12.7493 5.15591 11.978C5.68115 11.2066 6.42636 10.6112 7.29461 10.2691ZM10.1829 1.87744C11.067 1.87744 11.9148 2.22863 12.54 2.85375C13.1651 3.47887 13.5163 4.32672 13.5163 5.21077V6.87744C13.5163 7.7615 13.1651 8.60934 12.54 9.23446C11.9148 9.85959 11.067 10.2108 10.1829 10.2108C9.29889 10.2108 8.45104 9.85959 7.82592 9.23446C7.2008 8.60934 6.84961 7.7615 6.84961 6.87744V5.21077C6.84961 4.32672 7.2008 3.47887 7.82592 2.85375C8.45104 2.22863 9.29889 1.87744 10.1829 1.87744ZM10.1829 3.54411C9.74092 3.54411 9.31699 3.7197 9.00443 4.03226C8.69187 4.34482 8.51628 4.76875 8.51628 5.21077V6.87744C8.51628 7.31947 8.69187 7.74339 9.00443 8.05595C9.31699 8.36851 9.74092 8.54411 10.1829 8.54411C10.625 8.54411 11.0489 8.36851 11.3615 8.05595C11.674 7.74339 11.8496 7.31947 11.8496 6.87744V5.21077C11.8496 4.76875 11.674 4.34482 11.3615 4.03226C11.0489 3.7197 10.625 3.54411 10.1829 3.54411Z" fill="black"/>
</svg>
