<svg width="25" height="25" viewBox="0 0 25 25" fill="none" xmlns="http://www.w3.org/2000/svg">
<path d="M4.875 10.8666V17.1646H20.875V10.8666L17.914 7.16455H7.835L4.875 10.8666ZM2.875 10.1646L6.875 5.16455H18.875L22.875 10.1646V17.1646C22.875 17.695 22.6643 18.2037 22.2892 18.5788C21.9141 18.9538 21.4054 19.1646 20.875 19.1646H4.875C4.34457 19.1646 3.83586 18.9538 3.46079 18.5788C3.08571 18.2037 2.875 17.695 2.875 17.1646V10.1646ZM16.749 12.1646C16.5266 13.0228 16.0254 13.7829 15.3243 14.3255C14.6231 14.8681 13.7616 15.1625 12.875 15.1625C11.9884 15.1625 11.1269 14.8681 10.4257 14.3255C9.72457 13.7829 9.22344 13.0228 9.001 12.1646H4.875V10.1646H20.875V12.1646H16.749ZM14.607 12.1646H11.143C11.3185 12.4686 11.571 12.721 11.875 12.8965C12.1791 13.0721 12.5239 13.1645 12.875 13.1645C13.2261 13.1645 13.5709 13.0721 13.875 12.8965C14.179 12.721 14.4315 12.4686 14.607 12.1646Z" fill="#878787"/>
</svg>
