<svg width="21" height="21" viewBox="0 0 21 21" fill="none" xmlns="http://www.w3.org/2000/svg">
<path d="M7.91312 20.1729C7.32272 20.1729 6.7565 19.9095 6.33902 19.4406C5.92155 18.9718 5.68701 18.3359 5.68701 17.6729C5.68701 17.0098 5.92155 16.3739 6.33902 15.9051C6.7565 15.4362 7.32272 15.1729 7.91312 15.1729C8.50352 15.1729 9.06974 15.4362 9.48722 15.9051C9.9047 16.3739 10.1392 17.0098 10.1392 17.6729C10.1392 18.3359 9.9047 18.9718 9.48722 19.4406C9.06974 19.9095 8.50352 20.1729 7.91312 20.1729ZM15.7045 20.1729C15.1141 20.1729 14.5479 19.9095 14.1304 19.4406C13.7129 18.9718 13.4784 18.3359 13.4784 17.6729C13.4784 17.0098 13.7129 16.3739 14.1304 15.9051C14.5479 15.4362 15.1141 15.1729 15.7045 15.1729C16.2949 15.1729 16.8611 15.4362 17.2786 15.9051C17.6961 16.3739 17.9306 17.0098 17.9306 17.6729C17.9306 18.3359 17.6961 18.9718 17.2786 19.4406C16.8611 19.9095 16.2949 20.1729 15.7045 20.1729ZM1.19249 2.5766C0.91463 2.56654 0.651146 2.4355 0.457761 2.2112C0.264376 1.98691 0.15625 1.68694 0.15625 1.37473C0.15625 1.06252 0.264376 0.762545 0.457761 0.538248C0.651146 0.313952 0.91463 0.182916 1.19249 0.172852L2.47362 0.172852C3.47759 0.172852 4.34578 0.955352 4.56394 2.05535L5.9586 9.10785C6.17675 10.2079 7.04494 10.9904 8.04891 10.9904H16.4102L18.0152 3.77785H7.61371C7.33846 3.76375 7.07865 3.63102 6.88831 3.40729C6.69797 3.18356 6.59176 2.88603 6.59176 2.5766C6.59176 2.26717 6.69797 1.96965 6.88831 1.74591C7.07865 1.52218 7.33846 1.38946 7.61371 1.37535H18.0152C18.3406 1.37524 18.6617 1.45845 18.9542 1.61864C19.2466 1.77884 19.5027 2.0118 19.7029 2.29983C19.9032 2.58786 20.0423 2.92337 20.1098 3.28085C20.1772 3.63833 20.1712 4.00837 20.0922 4.36285L18.4871 11.5729C18.3714 12.0931 18.1042 12.555 17.7278 12.885C17.3515 13.215 16.8877 13.3942 16.4102 13.3941H8.04891C7.07476 13.3942 6.1297 13.0213 5.3698 12.3367C4.60991 11.6522 4.08063 10.6971 3.86939 9.6291L2.47362 2.5766H1.19249Z" fill="#444444"/>
</svg>
