<svg width="25" height="25" viewBox="0 0 25 25" fill="none" xmlns="http://www.w3.org/2000/svg">
<path d="M12.875 20.6763C13.9359 20.6763 14.9533 20.2548 15.7034 19.5047C16.4536 18.7546 16.875 17.7371 16.875 16.6763C16.875 15.6154 16.4536 14.598 15.7034 13.8478C14.9533 13.0977 13.9359 12.6763 12.875 12.6763C11.8141 12.6763 10.7967 13.0977 10.0466 13.8478C9.29643 14.598 8.875 15.6154 8.875 16.6763C8.875 17.7371 9.29643 18.7546 10.0466 19.5047C10.7967 20.2548 11.8141 20.6763 12.875 20.6763ZM8.875 12.2043V6.67627C8.875 5.6154 9.29643 4.59799 10.0466 3.84784C10.7967 3.0977 11.8141 2.67627 12.875 2.67627C13.9359 2.67627 14.9533 3.0977 15.7034 3.84784C16.4536 4.59799 16.875 5.6154 16.875 6.67627V12.2043C17.7807 13.0144 18.4191 14.0804 18.7057 15.2613C18.9923 16.4421 18.9136 17.6822 18.48 18.8173C18.0464 19.9525 17.2784 20.9293 16.2775 21.6183C15.2767 22.3074 14.0902 22.6764 12.875 22.6764C11.6599 22.6764 10.4733 22.3074 9.47247 21.6183C8.47161 20.9293 7.70356 19.9525 7.26997 18.8173C6.83637 17.6822 6.75767 16.4421 7.04428 15.2613C7.33088 14.0804 7.96928 13.0144 8.875 12.2043ZM10.875 11.0163C11.5175 10.79 12.1939 10.6751 12.875 10.6763C13.576 10.6763 14.249 10.7963 14.875 11.0173V6.67627C14.875 6.14584 14.6643 5.63713 14.2892 5.26206C13.9141 4.88698 13.4054 4.67627 12.875 4.67627C12.3446 4.67627 11.8359 4.88698 11.4608 5.26206C11.0857 5.63713 10.875 6.14584 10.875 6.67627V11.0163ZM12.875 18.6763C12.3446 18.6763 11.8359 18.4656 11.4608 18.0905C11.0857 17.7154 10.875 17.2067 10.875 16.6763C10.875 16.1458 11.0857 15.6371 11.4608 15.2621C11.8359 14.887 12.3446 14.6763 12.875 14.6763C13.4054 14.6763 13.9141 14.887 14.2892 15.2621C14.6643 15.6371 14.875 16.1458 14.875 16.6763C14.875 17.2067 14.6643 17.7154 14.2892 18.0905C13.9141 18.4656 13.4054 18.6763 12.875 18.6763Z" fill="#878787"/>
</svg>
