<svg width="21" height="21" viewBox="0 0 21 21" fill="none" xmlns="http://www.w3.org/2000/svg">
<g clip-path="url(#clip0_53_1179)">
<path d="M17.4888 17.3357L14.6555 14.5107C15.5696 13.3461 16.0656 11.908 16.0638 10.4274C16.0638 9.10887 15.6728 7.81994 14.9403 6.72361C14.2077 5.62728 13.1665 4.7728 11.9484 4.26821C10.7302 3.76363 9.38974 3.63161 8.09654 3.88884C6.80333 4.14608 5.61544 4.78102 4.68309 5.71337C3.75074 6.64572 3.1158 7.8336 2.85857 9.12681C2.60134 10.42 2.73336 11.7605 3.23794 12.9786C3.74253 14.1968 4.59701 15.238 5.69334 15.9705C6.78966 16.7031 8.0786 17.0941 9.39714 17.0941C10.8777 17.0959 12.3158 16.5999 13.4805 15.6857L16.3055 18.5191C16.3829 18.5972 16.4751 18.6592 16.5767 18.7015C16.6782 18.7438 16.7871 18.7656 16.8971 18.7656C17.0071 18.7656 17.1161 18.7438 17.2176 18.7015C17.3192 18.6592 17.4113 18.5972 17.4888 18.5191C17.5669 18.4416 17.6289 18.3494 17.6712 18.2479C17.7135 18.1463 17.7353 18.0374 17.7353 17.9274C17.7353 17.8174 17.7135 17.7085 17.6712 17.6069C17.6289 17.5054 17.5669 17.4132 17.4888 17.3357ZM4.39714 10.4274C4.39714 9.4385 4.69038 8.47181 5.23979 7.64956C5.7892 6.82731 6.57009 6.18645 7.48372 5.80801C8.39735 5.42958 9.40268 5.33056 10.3726 5.52349C11.3425 5.71641 12.2334 6.19262 12.9327 6.89188C13.6319 7.59114 14.1081 8.48205 14.3011 9.45196C14.494 10.4219 14.395 11.4272 14.0165 12.3408C13.6381 13.2545 12.9972 14.0354 12.175 14.5848C11.3527 15.1342 10.386 15.4274 9.39714 15.4274C8.07106 15.4274 6.79929 14.9006 5.8616 13.9629C4.92392 13.0253 4.39714 11.7535 4.39714 10.4274Z" fill="#38C173"/>
</g>
<defs>
<clipPath id="clip0_53_1179">
<rect width="20" height="20" fill="white" transform="translate(0.230469 0.760742)"/>
</clipPath>
</defs>
</svg>
