<svg width="21" height="21" viewBox="0 0 21 21" fill="none" xmlns="http://www.w3.org/2000/svg">
<path d="M20.1826 8.44376C19.8566 8.62702 19.5853 8.89379 19.3965 9.21664C19.2078 9.53949 19.1084 9.90678 19.1086 10.2808C19.1086 11.0698 19.5416 11.7568 20.1826 12.1178L19.4656 14.5238C19.0781 14.4571 18.6796 14.5003 18.3153 14.6485C17.9511 14.7968 17.6357 15.044 17.4048 15.3624C17.1739 15.6807 17.0368 16.0573 17.009 16.4496C16.9812 16.8419 17.0639 17.2341 17.2476 17.5818L15.1856 19.1838C14.9126 18.96 14.5877 18.8085 14.2408 18.7432C13.8939 18.6779 13.5361 18.701 13.2005 18.8102C12.8648 18.9195 12.562 19.1115 12.32 19.3684C12.078 19.6254 11.9046 19.9392 11.8156 20.2808L8.52562 20.2728C8.4357 19.9328 8.262 19.6208 8.0204 19.3653C7.7788 19.1097 7.47701 18.9188 7.1426 18.81C6.8082 18.7012 6.45186 18.6779 6.10615 18.7423C5.76044 18.8068 5.43639 18.9568 5.16362 19.1788L3.10362 17.5638C3.28219 17.2175 3.36117 16.8285 3.33176 16.44C3.30235 16.0515 3.16571 15.6788 2.93704 15.3634C2.70838 15.048 2.39666 14.8022 2.03659 14.6534C1.67653 14.5047 1.28224 14.4587 0.897617 14.5208L0.182617 12.1058C0.502566 11.9206 0.768131 11.6544 0.952621 11.3341C1.13711 11.0137 1.23402 10.6504 1.23362 10.2808C1.23362 9.50076 0.812617 8.82076 0.182617 8.45576L0.897617 6.04076C1.28231 6.10301 1.67674 6.05725 2.03697 5.90856C2.39719 5.75988 2.70907 5.51412 2.93787 5.19866C3.16666 4.88319 3.3034 4.51041 3.33284 4.12182C3.36228 3.73323 3.28327 3.3441 3.10462 2.99776L5.16262 1.38276C5.43539 1.60471 5.75944 1.75476 6.10515 1.81917C6.45086 1.88359 6.8072 1.86033 7.1416 1.75151C7.47601 1.6427 7.7778 1.4518 8.0194 1.19627C8.261 0.940743 8.4347 0.628733 8.52462 0.288762L11.8166 0.280762C11.9056 0.62237 12.079 0.93611 12.321 1.19309C12.563 1.45007 12.8658 1.64203 13.2015 1.7513C13.5371 1.86056 13.8949 1.88362 14.2418 1.81834C14.5887 1.75306 14.9136 1.60155 15.1866 1.37776L17.2466 2.98076C17.0629 3.32845 16.9802 3.72065 17.008 4.11291C17.0358 4.50518 17.1729 4.88182 17.4038 5.20015C17.6347 5.51848 17.9501 5.76576 18.3143 5.91398C18.6786 6.0622 19.0771 6.10543 19.4646 6.03876L20.1826 8.44276V8.44376ZM15.0056 3.96076C15.0056 3.89776 15.0076 3.83576 15.0106 3.77276L14.9306 3.71076C14.1517 3.92296 13.3275 3.90065 12.5612 3.64664C11.7949 3.39263 11.1206 2.9182 10.6226 2.28276L9.71862 2.28476C9.22254 2.91751 8.55136 3.39042 7.78859 3.64468C7.02582 3.89894 6.20513 3.92331 5.42862 3.71476L5.33362 3.79076C5.37127 4.69344 5.11031 5.58335 4.59111 6.32273C4.07192 7.06211 3.32346 7.60972 2.46162 7.88076C2.96443 8.57955 3.23453 9.41888 3.23362 10.2798C3.23362 11.1618 2.95362 11.9948 2.46162 12.6798C3.32346 12.9508 4.07192 13.4984 4.59111 14.2378C5.11031 14.9772 5.37127 15.8671 5.33362 16.7698L5.42962 16.8448C6.20601 16.637 7.02633 16.6617 7.78878 16.9159C8.55124 17.1701 9.22227 17.6426 9.71862 18.2748L10.6226 18.2768C11.1202 17.6412 11.7944 17.1667 12.5606 16.9126C13.3267 16.6586 14.1509 16.6364 14.9296 16.8488L15.0096 16.7868C14.9684 15.8813 15.2279 14.9876 15.7475 14.2449C16.2672 13.5023 17.0178 12.9523 17.8826 12.6808C17.3794 11.9818 17.1089 11.1421 17.1096 10.2808C17.1096 9.39876 17.3906 8.56476 17.8826 7.88076C17.0486 7.61857 16.32 7.09714 15.8027 6.39231C15.2855 5.68748 15.0066 4.83602 15.0066 3.96176L15.0056 3.96076ZM10.1826 14.2808C9.12175 14.2808 8.10434 13.8593 7.35419 13.1092C6.60404 12.359 6.18262 11.3416 6.18262 10.2808C6.18262 9.2199 6.60404 8.20248 7.35419 7.45233C8.10434 6.70219 9.12175 6.28076 10.1826 6.28076C11.2435 6.28076 12.2609 6.70219 13.011 7.45233C13.7612 8.20248 14.1826 9.2199 14.1826 10.2808C14.1826 11.3416 13.7612 12.359 13.011 13.1092C12.2609 13.8593 11.2435 14.2808 10.1826 14.2808ZM10.1826 12.2808C10.713 12.2808 11.2218 12.07 11.5968 11.695C11.9719 11.3199 12.1826 10.8112 12.1826 10.2808C12.1826 9.75033 11.9719 9.24162 11.5968 8.86655C11.2218 8.49148 10.713 8.28076 10.1826 8.28076C9.65218 8.28076 9.14348 8.49148 8.7684 8.86655C8.39333 9.24162 8.18262 9.75033 8.18262 10.2808C8.18262 10.8112 8.39333 11.3199 8.7684 11.695C9.14348 12.07 9.65218 12.2808 10.1826 12.2808Z" fill="#444444"/>
</svg>
