<svg width="25" height="25" viewBox="0 0 25 25" fill="none" xmlns="http://www.w3.org/2000/svg">
<path d="M12.1816 22.9243C6.65864 22.9243 2.18164 18.4473 2.18164 12.9243C2.18164 7.40132 6.65864 2.92432 12.1816 2.92432C17.7046 2.92432 22.1816 7.40132 22.1816 12.9243C22.1816 18.4473 17.7046 22.9243 12.1816 22.9243ZM12.1816 20.9243C14.3034 20.9243 16.3382 20.0815 17.8385 18.5812C19.3388 17.0809 20.1816 15.046 20.1816 12.9243C20.1816 10.8026 19.3388 8.76775 17.8385 7.26746C16.3382 5.76717 14.3034 4.92432 12.1816 4.92432C10.0599 4.92432 8.02508 5.76717 6.52479 7.26746C5.0245 8.76775 4.18164 10.8026 4.18164 12.9243C4.18164 15.046 5.0245 17.0809 6.52479 18.5812C8.02508 20.0815 10.0599 20.9243 12.1816 20.9243ZM12.1816 10.9243C12.4469 10.9243 12.7012 11.0297 12.8887 11.2172C13.0763 11.4047 13.1816 11.6591 13.1816 11.9243V16.9243C13.1816 17.1895 13.0763 17.4439 12.8887 17.6314C12.7012 17.819 12.4469 17.9243 12.1816 17.9243C11.9164 17.9243 11.6621 17.819 11.4745 17.6314C11.287 17.4439 11.1816 17.1895 11.1816 16.9243V11.9243C11.1816 11.6591 11.287 11.4047 11.4745 11.2172C11.6621 11.0297 11.9164 10.9243 12.1816 10.9243ZM12.1816 9.92432C11.9164 9.92432 11.6621 9.81896 11.4745 9.63142C11.287 9.44389 11.1816 9.18953 11.1816 8.92432C11.1816 8.6591 11.287 8.40475 11.4745 8.21721C11.6621 8.02967 11.9164 7.92432 12.1816 7.92432C12.4469 7.92432 12.7012 8.02967 12.8887 8.21721C13.0763 8.40475 13.1816 8.6591 13.1816 8.92432C13.1816 9.18953 13.0763 9.44389 12.8887 9.63142C12.7012 9.81896 12.4469 9.92432 12.1816 9.92432Z" fill="#343434"/>
</svg>
