<svg width="21" height="21" viewBox="0 0 21 21" fill="none" xmlns="http://www.w3.org/2000/svg">
<path d="M18.1826 5.98626V3.12912H2.18262V5.98626H18.1826ZM18.1826 10.272H2.18262V17.4148H18.1826V10.272ZM2.18262 0.271973H18.1826C18.7131 0.271973 19.2218 0.572992 19.5968 1.10881C19.9719 1.64463 20.1826 2.37135 20.1826 3.12912V17.4148C20.1826 18.1726 19.9719 18.8993 19.5968 19.4351C19.2218 19.971 18.7131 20.272 18.1826 20.272H2.18262C1.65218 20.272 1.14348 19.971 0.768404 19.4351C0.393331 18.8993 0.182617 18.1726 0.182617 17.4148V3.12912C0.182617 2.37135 0.393331 1.64463 0.768404 1.10881C1.14348 0.572992 1.65218 0.271973 2.18262 0.271973ZM4.18262 13.1291H5.18262C5.44783 13.1291 5.70219 13.2796 5.88972 13.5475C6.07726 13.8154 6.18262 14.1788 6.18262 14.5577C6.18262 14.9366 6.07726 15.2999 5.88972 15.5678C5.70219 15.8357 5.44783 15.9863 5.18262 15.9863H4.18262C3.9174 15.9863 3.66305 15.8357 3.47551 15.5678C3.28797 15.2999 3.18262 14.9366 3.18262 14.5577C3.18262 14.1788 3.28797 13.8154 3.47551 13.5475C3.66305 13.2796 3.9174 13.1291 4.18262 13.1291ZM9.18262 13.1291H14.1826C14.4478 13.1291 14.7022 13.2796 14.8897 13.5475C15.0773 13.8154 15.1826 14.1788 15.1826 14.5577C15.1826 14.9366 15.0773 15.2999 14.8897 15.5678C14.7022 15.8357 14.4478 15.9863 14.1826 15.9863H9.18262C8.9174 15.9863 8.66305 15.8357 8.47551 15.5678C8.28797 15.2999 8.18262 14.9366 8.18262 14.5577C8.18262 14.1788 8.28797 13.8154 8.47551 13.5475C8.66305 13.2796 8.9174 13.1291 9.18262 13.1291Z" fill="#444444"/>
</svg>
