<svg width="21" height="20" viewBox="0 0 21 20" fill="none" xmlns="http://www.w3.org/2000/svg">
<path d="M2.18262 4.84342H18.1826V1.96842H2.18262V4.84342ZM18.1826 6.76009V18.2601C18.1826 18.5143 18.0773 18.758 17.8897 18.9377C17.7022 19.1175 17.4478 19.2184 17.1826 19.2184H3.18262C2.9174 19.2184 2.66305 19.1175 2.47551 18.9377C2.28797 18.758 2.18262 18.5143 2.18262 18.2601V6.76009H1.18262C0.917401 6.76009 0.663047 6.65912 0.47551 6.4794C0.287974 6.29968 0.182617 6.05592 0.182617 5.80176V1.01009C0.182617 0.755925 0.287974 0.51217 0.47551 0.332447C0.663047 0.152725 0.917401 0.0517578 1.18262 0.0517578L19.1826 0.0517578C19.4478 0.0517578 19.7022 0.152725 19.8897 0.332447C20.0773 0.51217 20.1826 0.755925 20.1826 1.01009V5.80176C20.1826 6.05592 20.0773 6.29968 19.8897 6.4794C19.7022 6.65912 19.4478 6.76009 19.1826 6.76009H18.1826ZM4.18262 17.3018H16.1826V6.76009H4.18262V17.3018ZM8.18262 13.4684H12.1826C12.4478 13.4684 12.7022 13.5694 12.8897 13.7491C13.0773 13.9288 13.1826 14.1726 13.1826 14.4268C13.1826 14.6809 13.0773 14.9247 12.8897 15.1044C12.7022 15.2841 12.4478 15.3851 12.1826 15.3851H8.18262C7.9174 15.3851 7.66305 15.2841 7.47551 15.1044C7.28797 14.9247 7.18262 14.6809 7.18262 14.4268C7.18262 14.1726 7.28797 13.9288 7.47551 13.7491C7.66305 13.5694 7.9174 13.4684 8.18262 13.4684Z" fill="#444444"/>
</svg>
