<svg width="25" height="25" viewBox="0 0 25 25" fill="none" xmlns="http://www.w3.org/2000/svg">
<path d="M9.409 12.6486C9.53195 12.5962 9.66416 12.5689 9.79783 12.5684C9.9315 12.5679 10.0639 12.5942 10.1872 12.6458C10.3105 12.6974 10.4223 12.7731 10.5158 12.8686C10.6094 12.9641 10.6828 13.0774 10.7318 13.2017C10.7808 13.3261 10.8044 13.459 10.8012 13.5927C10.7979 13.7263 10.7679 13.8579 10.7129 13.9797C10.6579 14.1016 10.5791 14.2112 10.481 14.302C10.383 14.3928 10.2677 14.4631 10.142 14.5086C9.47354 14.772 8.89983 15.2305 8.4955 15.8244C8.09118 16.4183 7.87497 17.1201 7.875 17.8386V19.5786C7.875 19.8438 7.98036 20.0982 8.16789 20.2857C8.35543 20.4733 8.60978 20.5786 8.875 20.5786H16.875C17.1402 20.5786 17.3946 20.4733 17.5821 20.2857C17.7696 20.0982 17.875 19.8438 17.875 19.5786V17.9316C17.8751 17.1901 17.6499 16.466 17.2291 15.8554C16.8084 15.2448 16.212 14.7765 15.519 14.5126C15.3925 14.4687 15.2762 14.3999 15.1768 14.3102C15.0774 14.2205 14.9971 14.1118 14.9405 13.9905C14.884 13.8692 14.8523 13.7377 14.8475 13.6039C14.8427 13.4702 14.8647 13.3368 14.9124 13.2117C14.9601 13.0866 15.0324 12.9724 15.125 12.8758C15.2177 12.7792 15.3288 12.7021 15.4517 12.6492C15.5747 12.5964 15.707 12.5687 15.8409 12.5679C15.9748 12.5671 16.1074 12.5932 16.231 12.6446C17.3026 13.0528 18.2249 13.7769 18.8756 14.7211C19.5264 15.6653 19.8749 16.7849 19.875 17.9316V19.5786C19.875 20.3743 19.5589 21.1373 18.9963 21.6999C18.4337 22.2625 17.6706 22.5786 16.875 22.5786H8.875C8.07935 22.5786 7.31629 22.2625 6.75368 21.6999C6.19107 21.1373 5.875 20.3743 5.875 19.5786V17.8386C5.87514 16.7188 6.21228 15.6249 6.84256 14.6993C7.47285 13.7736 8.3671 13.0591 9.409 12.6486ZM12.875 2.57861C13.9359 2.57861 14.9533 3.00004 15.7034 3.75019C16.4536 4.50033 16.875 5.51775 16.875 6.57861V8.57861C16.875 9.63948 16.4536 10.6569 15.7034 11.407C14.9533 12.1572 13.9359 12.5786 12.875 12.5786C11.8141 12.5786 10.7967 12.1572 10.0466 11.407C9.29643 10.6569 8.875 9.63948 8.875 8.57861V6.57861C8.875 5.51775 9.29643 4.50033 10.0466 3.75019C10.7967 3.00004 11.8141 2.57861 12.875 2.57861ZM12.875 4.57861C12.3446 4.57861 11.8359 4.78933 11.4608 5.1644C11.0857 5.53947 10.875 6.04818 10.875 6.57861V8.57861C10.875 9.10905 11.0857 9.61775 11.4608 9.99283C11.8359 10.3679 12.3446 10.5786 12.875 10.5786C13.4054 10.5786 13.9141 10.3679 14.2892 9.99283C14.6643 9.61775 14.875 9.10905 14.875 8.57861V6.57861C14.875 6.04818 14.6643 5.53947 14.2892 5.1644C13.9141 4.78933 13.4054 4.57861 12.875 4.57861Z" fill="#878787"/>
</svg>
