<svg width="13" height="13" viewBox="0 0 13 13" fill="none" xmlns="http://www.w3.org/2000/svg">
<path d="M6.4987 9.75004C3.76761 9.75384 1.08203 8.29513 1.08203 6.50004C1.08203 4.70496 3.7817 3.24083 6.4987 3.25004C9.2157 3.25925 11.9154 4.70496 11.9154 6.50004C11.9154 8.29513 9.22978 9.74625 6.4987 9.75004ZM6.4987 8.66671C7.07333 8.66671 7.62443 8.43844 8.03076 8.03211C8.43709 7.62578 8.66536 7.07468 8.66536 6.50004C8.66536 5.92541 8.43709 5.37431 8.03076 4.96798C7.62443 4.56165 7.07333 4.33338 6.4987 4.33338C5.92406 4.33338 5.37296 4.56165 4.96663 4.96798C4.5603 5.37431 4.33203 5.92541 4.33203 6.50004C4.33203 7.07468 4.5603 7.62578 4.96663 8.03211C5.37296 8.43844 5.92406 8.66671 6.4987 8.66671ZM6.4987 7.58338C6.21138 7.58338 5.93583 7.46924 5.73267 7.26608C5.5295 7.06291 5.41536 6.78736 5.41536 6.50004C5.41536 6.21273 5.5295 5.93718 5.73267 5.73401C5.93583 5.53085 6.21138 5.41671 6.4987 5.41671C6.78602 5.41671 7.06157 5.53085 7.26473 5.73401C7.46789 5.93718 7.58203 6.21273 7.58203 6.50004C7.58203 6.78736 7.46789 7.06291 7.26473 7.26608C7.06157 7.46924 6.78602 7.58338 6.4987 7.58338Z" fill="white"/>
</svg>
